<svg width="24" height="24" viewBox="0 0 24 24" fill="none" xmlns="http://www.w3.org/2000/svg">
<g id="icons/contents/like/false">
<path id="Union (Stroke)" fill-rule="evenodd" clip-rule="evenodd" d="M12 7.69724L10.5898 6.29491C8.85349 4.56836 6.03381 4.56836 4.29754 6.29491C2.56749 8.01526 2.56749 10.7998 4.29754 12.5202L12 20.1795L19.7025 12.5202C21.4325 10.7998 21.4325 8.01526 19.7025 6.29491C17.9662 4.56836 15.1465 4.56836 13.4102 6.29491L12 7.69724ZM12 23L2.8873 13.9384C0.370899 11.4361 0.370899 7.37903 2.8873 4.87673C5.4037 2.37442 9.4836 2.37442 12 4.87673C14.5164 2.37442 18.5963 2.37442 21.1127 4.87673C23.6291 7.37903 23.6291 11.4361 21.1127 13.9384L12 23Z" fill="#3A3A3C"/>
</g>
</svg>
