<svg width="24" height="24" viewBox="0 0 24 24" fill="none" xmlns="http://www.w3.org/2000/svg">
<g id="icons/etc/search">
<path id="Union" fill-rule="evenodd" clip-rule="evenodd" d="M17.157 10.5889C17.157 14.2164 14.2164 17.157 10.5889 17.157C6.96153 17.157 4.02093 14.2164 4.02093 10.5889C4.02093 6.96153 6.96153 4.02093 10.5889 4.02093C14.2164 4.02093 17.157 6.96153 17.157 10.5889ZM15.9062 17.3345C14.4437 18.4889 12.5968 19.1779 10.5889 19.1779C5.8454 19.1779 2 15.3325 2 10.5889C2 5.8454 5.8454 2 10.5889 2C15.3325 2 19.1779 5.8454 19.1779 10.5889C19.1779 12.5964 18.4892 14.443 17.3351 15.9054L21.7047 20.275C22.0993 20.6696 22.0993 21.3094 21.7047 21.704C21.3101 22.0987 20.6703 22.0987 20.2757 21.704L15.9062 17.3345Z" fill="#444444" fill-opacity="0.6"/>
</g>
</svg>
